Title: Medianeras aka Sidewalls aka Medianeras: Buenos Aires in Times of Virtual Love
Year: 2011 
Country: Argentina
Language: Spanish
Genre: Drama
Runtime: 95 min
Source: DVDRIP
Size: 1,36 GB
Directed by: Gustavo Taretto
Starring:
Javier Drolas  ...  Martin
Pilar Lopez de Ayala  ...  Mariana
Ines Efron  ...  Ana
Adrian Navarro  ...  Lucas
Rafael Ferro  ...  Rafa
Carla Peterson  ...  Marcela

IMDB Rating: 7.5/10

IMDB Link:                      
http://www.imdb.com/title/tt1235841/


Storyline: Martin and Mariana are slightly damaged people who live in buildings just opposite one another. While they often don't notice each other, separation might be the very thing that brings them together. (IMDB)



General
Complete name                    : G:\Filmes\Medianeras.2011.DVDRip.XviD.AC3.HORiZON-ArtSubs\Medianeras.2011.DVDRip.XviD.AC3.HORiZON-ArtSubs.avi
Format                           : AVI
Format/Info                      : Audio Video Interleave
File size                        : 1.37 GiB
Duration                         : 1h 33mn
Overall bit rate                 : 2 090 Kbps
Writing application              : FairUse Wizard - http://fairusewizard.com
Writing library                  : The best and REALLY easy backup tool

Video
ID                               : 0
Format                           : MPEG-4 Visual
Format profile                   : Advanced Simple@L5
Format settings, BVOP            : Yes
Format settings, QPel            : No
Format settings, GMC             : No warppoints
Format settings, Matrix          : Default (H.263)
Muxing mode                      : Packed bitstream
Codec ID                         : XVID
Codec ID/Hint                    : XviD
Duration                         : 1h 33mn
Bit rate                         : 1 889 Kbps
Width                            : 704 pixels
Height                           : 384 pixels
Display aspect ratio             : 16:9
Frame rate                       : 23.976 fps
Color space                      : YUV
Chroma subsampling               : 4:2:0
Bit depth                        : 8 bits
Scan type                        : Progressive
Compression mode                 : Lossy
Bits/(Pixel*Frame)               : 0.291
Stream size                      : 1.24 GiB (90%)
Writing library                  : XviD 1.1.0 (UTC 2005-11-22)

Audio
ID                               : 1
Format                           : AC-3
Format/Info                      : Audio Coding 3
Mode extension                   : CM (complete main)
Codec ID                         : 2000
Duration                         : 1h 33mn
Bit rate mode                    : Constant
Bit rate                         : 192 Kbps
Channel(s)                       : 2 channels
Channel positions                : Front: L R
Sampling rate                    : 48.0 KHz
Bit depth                        : 16 bits
Compression mode                 : Lossy
Stream size                      : 129 MiB (9%)
Alignment                        : Split accross interleaves
Interleave, duration             : 42 ms (1.00 video frame)
Interleave, preload duration     : 500 ms



THIS TORRENT HAS SOFT SUBTITLES IN ENGLISH, FRENCH AND BRAZILIAN PORTUGUESE.


Thanks to those helping me seed. Leechers remember, the community depends on you. If nobody shares, the freebies go away. Remember, the only reason you can download this free movie is because others are generous enough to keep sharing it with you. If nobody shares, everybody loses, so even if its for an extra hour or two after you get it, remember, others want to see it too, and they can't without you.


SEE MY OTHERS UPLOADS:                                              
http://thepiratebay.org/user/noriegaRJ

AND SEE THIS ANOTHERS UPLOADS FROM "HORiZON-ArtSubs":   
http://thepiratebay.org/user/lletaif				